<?xml version="1.0" encoding="UTF-8"?>
<svg xmlns="http://www.w3.org/2000/svg" width="512" height="512" viewBox="0 0 512 512">

<defs>
  <linearGradient id="bg8" x1="0" y1="0" x2="1" y2="1">
    <stop offset="0%" stop-color="#4338CA"/>
    <stop offset="100%" stop-color="#3730A3"/>
  </linearGradient>
  <linearGradient id="quillg" x1="0" y1="0" x2="0" y2="1">
    <stop offset="0%" stop-color="#FDE68A"/>
    <stop offset="50%" stop-color="#F59E0B"/>
    <stop offset="100%" stop-color="#D97706"/>
  </linearGradient>
</defs>
<rect width="512" height="512" rx="102" fill="url(#bg8)"/>
<g transform="rotate(-3, 256, 270)">
  <rect x="130" y="100" width="252" height="340" rx="16" fill="white" opacity="0.95"/>
  <rect x="158" y="140" width="100" height="8" rx="4" fill="#C7D2FE"/>
  <rect x="158" y="162" width="160" height="5" rx="2.5" fill="#E0E7FF"/>
  <rect x="158" y="178" width="140" height="5" rx="2.5" fill="#E0E7FF"/>
  <rect x="158" y="194" width="170" height="5" rx="2.5" fill="#E0E7FF"/>
  <path d="M158,260 Q230,240 290,280" fill="none" stroke="#6366F1" stroke-width="3" stroke-linecap="round"/>
</g>
<g transform="rotate(30, 350, 160)">
  <path d="M380,100 C410,140 420,200 400,260 C395,280 385,290 375,280 C365,270 370,250 380,230 C390,270 390,200 385,150 Z" fill="url(#quillg)"/>
  <path d="M375,280 L385,295 L395,280 Z" fill="#92400E"/>
  <line x1="380" y1="285" x2="380" y2="272" stroke="#B45309" stroke-width="2"/>
</g>
<circle cx="330" cy="300" r="4" fill="#1E3A8A" opacity="0.5"/>

</svg>